# xmcd CD database file
#
# Track frame offsets:
#	150
#	21011
#	74111
#	102162
#	111237
#	131675
#	153716
#	181501
#	210244
#	236735
#
# Disc length: 3536 seconds
#
# Revision: 0
# Processed by: cddbd v1.5.2PL0 Copyright (c) Steve Scherf et al.
# Submitted via: CDex 1.51
#
DISCID=860dce0a
DTITLE=Eric Clapton And Buddy Guy - Live From Ronnie Scotts Oct 6, 1987  Disc 1
DYEAR=1900
DGENRE=Blues
TTITLE0=Sweet Home Chicago
TTITLE1=Play The Blues
TTITLE2=Key To The Highway
TTITLE3=Walking The Dog
TTITLE4=Stormy Monday Pt1
TTITLE5=Real Mother For Ya
TTITLE6=Stormy Monday Pt2
TTITLE7=Jam
TTITLE8=Worried Life Blues Pt1
TTITLE9=Worried Life Blues Pt2
EXTD=
EXTT0=
EXTT1=
EXTT2=
EXTT3=
EXTT4=
EXTT5=
EXTT6=
EXTT7=
EXTT8=
EXTT9=
PLAYORDER=
